<svg xmlns="http://www.w3.org/2000/svg" xmlns:xlink="http://www.w3.org/1999/xlink" width="34" height="34" viewBox="0 0 34 34" fill="none">
<g opacity="0">
<path d="M0 34L34 34L34 0L0 0L0 34Z"   fill="#0d8adb" >
</path>
</g>
<path d="M25.5 29.75L17 29.75C15.8728 29.75 14.7918 29.3022 13.9948 28.5052C13.1978 27.7082 12.75 26.6272 12.75 25.5L12.75 17C12.75 15.8728 13.1978 14.7918 13.9948 13.9948C14.7918 13.1978 15.8728 12.75 17 12.75L25.5 12.75C26.6272 12.75 27.7082 13.1978 28.5052 13.9948C29.3022 14.7918 29.75 15.8728 29.75 17L29.75 25.5C29.75 26.6272 29.3022 27.7082 28.5052 28.5052C27.7082 29.3022 26.6272 29.75 25.5 29.75ZM17 15.5833C16.6243 15.5833 16.2639 15.7326 15.9983 15.9983C15.7326 16.2639 15.5833 16.6243 15.5833 17L15.5833 25.5C15.5833 25.8757 15.7326 26.2361 15.9983 26.5017C16.2639 26.7674 16.6243 26.9167 17 26.9167L25.5 26.9167C25.8757 26.9167 26.2361 26.7674 26.5017 26.5017C26.7674 26.2361 26.9167 25.8757 26.9167 25.5L26.9167 17C26.9167 16.6243 26.7674 16.2639 26.5017 15.9983C26.2361 15.7326 25.8757 15.5833 25.5 15.5833L17 15.5833Z"   fill="#0d8adb" >
</path>
<path d="M13.7842 21.25L8.0325 21.25C7.03047 21.2463 6.07054 20.8466 5.36199 20.138C4.65344 19.4295 4.25373 18.4695 4.25 17.4675L4.25 8.0325C4.25373 7.03047 4.65344 6.07054 5.36199 5.36199C6.07054 4.65344 7.03047 4.25373 8.0325 4.25L17.4675 4.25C18.4695 4.25373 19.4295 4.65344 20.138 5.36199C20.8466 6.07054 21.2463 7.03047 21.25 8.0325L21.25 13.3167L18.4167 13.3167L18.4167 8.0325C18.4167 7.78077 18.3167 7.53934 18.1387 7.36134C17.9607 7.18333 17.7192 7.08333 17.4675 7.08333L8.0325 7.08333C7.78077 7.08333 7.53934 7.18333 7.36134 7.36134C7.18333 7.53934 7.08333 7.78077 7.08333 8.0325L7.08333 17.4675C7.08333 17.7192 7.18333 17.9607 7.36134 18.1387C7.53934 18.3167 7.78077 18.4167 8.0325 18.4167L13.7842 18.4167L13.7842 21.25Z"   fill="#0d8adb" >
</path>
</svg>
