<svg xmlns="http://www.w3.org/2000/svg" xmlns:xlink="http://www.w3.org/1999/xlink" width="34" height="34" viewBox="0 0 34 34" fill="none">
<g opacity="0">
<path d="M0 2.0819e-15L0 34L34 34L34 0L0 2.0819e-15Z"   fill="#0d8adb" >
</path>
</g>
<path d="M22.6614 14.1648L10.0286 14.1648L13.8524 9.37772C13.987 9.2351 14.0905 9.06608 14.1564 8.88135C14.2223 8.69663 14.2491 8.50024 14.2351 8.30462C14.2212 8.10899 14.1667 7.9184 14.0753 7.74492C13.9838 7.57144 13.8573 7.41885 13.7038 7.29682C13.5502 7.17478 13.373 7.08596 13.1834 7.03598C12.9938 6.98601 12.7958 6.97596 12.6021 7.00649C12.4084 7.03701 12.2231 7.10743 12.058 7.2133C11.8929 7.31917 11.7516 7.45817 11.6431 7.6215L5.97815 14.703C5.78057 14.9531 5.6731 15.2625 5.6731 15.5811C5.6731 15.8998 5.78057 16.2092 5.97815 16.4593L11.6431 23.5408C11.775 23.7077 11.9428 23.8428 12.134 23.9359C12.3252 24.0291 12.535 24.078 12.7477 24.079C13.0672 24.0771 13.3766 23.9673 13.6258 23.7674C13.9176 23.5337 14.1052 23.1941 14.1476 22.8227C14.1901 22.4512 14.084 22.0781 13.8524 21.7846L10.0286 16.9975L22.6614 16.9975C23.037 16.9975 23.3972 17.1467 23.6628 17.4123C23.9284 17.6779 24.0776 18.0381 24.0776 18.4138L24.0776 25.4953C24.0776 25.8709 24.2268 26.2312 24.4924 26.4968C24.758 26.7624 25.1182 26.9116 25.4938 26.9116C25.8694 26.9116 26.2297 26.7624 26.4953 26.4968C26.7608 26.2312 26.9101 25.8709 26.9101 25.4953L26.9101 18.4138C26.9101 17.2869 26.4624 16.2061 25.6656 15.4093C24.8689 14.6125 23.7882 14.1648 22.6614 14.1648Z"   fill="#0d8adb" >
</path>
</svg>
