<svg xmlns="http://www.w3.org/2000/svg" xmlns:xlink="http://www.w3.org/1999/xlink" width="34" height="34" viewBox="0 0 34 34" fill="none">
<g opacity="0">
<path d="M34 34L34 0L2.0819e-15 0L0 34L34 34Z"   fill="#0d8adb" >
</path>
</g>
<path d="M28.0152 14.7069L22.3502 7.62178C22.1067 7.36362 21.7752 7.20633 21.4213 7.18103C21.0674 7.15574 20.7169 7.26428 20.4391 7.48518C20.1614 7.70608 19.9766 8.02324 19.9214 8.37392C19.8662 8.7246 19.9445 9.08325 20.1409 9.37889L23.9647 14.1685L11.3319 14.1685C10.2051 14.1685 9.12445 14.6163 8.32767 15.4136C7.53088 16.2108 7.08325 17.2921 7.08325 18.4195L7.08325 25.5047C7.08325 25.8805 7.23246 26.2409 7.49806 26.5067C7.76365 26.7724 8.12388 26.9217 8.49948 26.9217C8.87509 26.9217 9.23532 26.7724 9.50091 26.5067C9.76651 26.2409 9.91572 25.8805 9.91572 25.5047L9.91572 18.4195C9.91572 18.0437 10.0649 17.6833 10.3305 17.4176C10.5961 17.1518 10.9563 17.0025 11.3319 17.0025L23.9647 17.0025L20.1409 21.7921C19.9093 22.0857 19.8032 22.4591 19.8457 22.8307C19.8881 23.2024 20.0757 23.5421 20.3675 23.7759C20.6167 23.976 20.9261 24.0858 21.2456 24.0877C21.4583 24.0867 21.6681 24.0378 21.8593 23.9445C22.0505 23.8513 22.2183 23.7162 22.3502 23.5492L28.0152 16.464C28.2127 16.2139 28.3202 15.9043 28.3202 15.5855C28.3202 15.2666 28.2127 14.9571 28.0152 14.7069L28.0152 14.7069Z"   fill="#0d8adb" >
</path>
</svg>
