<svg xmlns="http://www.w3.org/2000/svg" xmlns:xlink="http://www.w3.org/1999/xlink" width="34" height="34" viewBox="0 0 34 34" fill="none">
<g opacity="0">
<path d="M0 34L34 34L34 0L0 0L0 34Z"   fill="#0d8adb" >
</path>
</g>
<path d="M19.8333 18.4167L18.4167 18.4167L18.4167 17C18.4167 16.6243 18.2674 16.2639 18.0017 15.9983C17.7361 15.7326 17.3757 15.5833 17 15.5833C16.6243 15.5833 16.2639 15.7326 15.9983 15.9983C15.7326 16.2639 15.5833 16.6243 15.5833 17L15.5833 18.4167L14.1667 18.4167C13.7909 18.4167 13.4306 18.5659 13.1649 18.8316C12.8993 19.0973 12.75 19.4576 12.75 19.8333C12.75 20.2091 12.8993 20.5694 13.1649 20.8351C13.4306 21.1007 13.7909 21.25 14.1667 21.25L15.5833 21.25L15.5833 22.6667C15.5833 23.0424 15.7326 23.4027 15.9983 23.6684C16.2639 23.9341 16.6243 24.0833 17 24.0833C17.3757 24.0833 17.7361 23.9341 18.0017 23.6684C18.2674 23.4027 18.4167 23.0424 18.4167 22.6667L18.4167 21.25L19.8333 21.25C20.2091 21.25 20.5694 21.1007 20.8351 20.8351C21.1007 20.5694 21.25 20.2091 21.25 19.8333C21.25 19.4576 21.1007 19.0973 20.8351 18.8316C20.5694 18.5659 20.2091 18.4167 19.8333 18.4167Z"   fill="#0d8adb" >
</path>
<path d="M27.6249 9.98761L17.7083 9.98761L13.9824 5.48251C13.8506 5.32 13.6844 5.18871 13.4958 5.09807C13.3072 5.00744 13.1008 4.95972 12.8916 4.95833L6.37492 4.95833C5.44928 4.94697 4.55686 5.30287 3.89306 5.94809C3.22926 6.59332 2.84817 7.4753 2.83325 8.40091L2.83325 25.5996C2.84817 26.5252 3.22926 27.4072 3.89306 28.0524C4.55686 28.6977 5.44928 29.0536 6.37492 29.0422L27.6249 29.0422C28.5506 29.0536 29.443 28.6977 30.1068 28.0524C30.7706 27.4072 31.1517 26.5252 31.1666 25.5996L31.1666 13.4302C31.1517 12.5046 30.7706 11.6226 30.1068 10.9774C29.443 10.3321 28.5506 9.97625 27.6249 9.98761L27.6249 9.98761ZM28.3333 25.5713C28.3279 25.6582 28.3052 25.7432 28.2665 25.8212C28.2277 25.8992 28.1738 25.9687 28.1077 26.0255C28.0417 26.0822 27.9649 26.1252 27.882 26.1518C27.7991 26.1785 27.7117 26.1882 27.6249 26.1805L6.37492 26.1805C6.28817 26.1882 6.20075 26.1785 6.11782 26.1518C6.0349 26.1252 5.95815 26.0822 5.89212 26.0255C5.82608 25.9687 5.7721 25.8992 5.73337 25.8212C5.69463 25.7432 5.67192 25.6582 5.66658 25.5713L5.66658 8.40091C5.67192 8.31398 5.69463 8.22899 5.73337 8.15099C5.7721 8.07298 5.82608 8.00353 5.89212 7.94674C5.95815 7.88995 6.0349 7.84697 6.11782 7.82035C6.20075 7.79372 6.28817 7.78399 6.37492 7.79173L12.2258 7.79173L15.9091 12.2968C16.0409 12.4593 16.2071 12.5906 16.3957 12.6813C16.5843 12.7719 16.7907 12.8196 16.9999 12.821L27.6249 12.821C27.7117 12.8133 27.7991 12.823 27.882 12.8496C27.9649 12.8762 28.0417 12.9192 28.1077 12.976C28.1738 13.0328 28.2277 13.1023 28.2665 13.1803C28.3052 13.2583 28.3279 13.3433 28.3333 13.4302L28.3333 25.5713Z"   fill="#0d8adb" >
</path>
</svg>
