<svg xmlns="http://www.w3.org/2000/svg" xmlns:xlink="http://www.w3.org/1999/xlink" width="34" height="34" viewBox="0 0 34 34" fill="none">
<g opacity="0">
<path d="M34 0L0 0L0 34L34 34L34 0Z"   fill="#0d8adb" >
</path>
</g>
<path d="M29.7541 16.0812C29.7378 15.8178 29.6483 15.5641 29.4955 15.3488C29.3428 15.1335 29.133 14.9651 28.8898 14.8627L25.8434 13.5591L29.0456 11.7171C29.2726 11.5866 29.459 11.3956 29.5841 11.1655C29.7091 10.9354 29.768 10.6751 29.7541 10.4136C29.7378 10.1501 29.6483 9.89645 29.4955 9.68115C29.3428 9.46585 29.133 9.29748 28.8898 9.19504L17.5546 4.36336C17.3798 4.28931 17.1919 4.25116 17.0021 4.25116C16.8122 4.25116 16.6243 4.28931 16.4495 4.36336L5.11435 9.19504C4.87109 9.29748 4.66127 9.46585 4.50856 9.68115C4.35585 9.89645 4.26631 10.1501 4.25005 10.4136C4.23613 10.6751 4.29496 10.9354 4.42002 11.1655C4.54508 11.3956 4.73147 11.5866 4.9585 11.7171L8.16067 13.5591L5.11435 14.8627C4.87109 14.9651 4.66127 15.1335 4.50856 15.3488C4.35585 15.5641 4.26631 15.8178 4.25005 16.0812C4.23613 16.3428 4.29496 16.6031 4.42002 16.8332C4.54508 17.0633 4.73147 17.2542 4.9585 17.3848L8.16067 19.2268L5.11435 20.5304C4.87109 20.6328 4.66127 20.8012 4.50856 21.0165C4.35585 21.2318 4.26631 21.4855 4.25005 21.7489C4.23613 22.0104 4.29496 22.2707 4.42002 22.5008C4.54508 22.7309 4.73147 22.9219 4.9585 23.0525L16.2936 29.5703C16.509 29.6946 16.7533 29.7601 17.0021 29.7601C17.2508 29.7601 17.4951 29.6946 17.7105 29.5703L29.0456 23.0525C29.2726 22.9219 29.459 22.7309 29.5841 22.5008C29.7091 22.2707 29.768 22.0104 29.7541 21.7489C29.7378 21.4855 29.6483 21.2318 29.4955 21.0165C29.3428 20.8012 29.133 20.6328 28.8898 20.5304L25.8434 19.2268L29.0456 17.3848C29.2726 17.2542 29.459 17.0633 29.5841 16.8332C29.7091 16.6031 29.768 16.3428 29.7541 16.0812L29.7541 16.0812ZM17.0021 7.21136L25.1633 10.6828L17.0021 15.3728L8.84077 10.6828L17.0021 7.21136ZM16.2936 18.235C16.509 18.3593 16.7533 18.4248 17.0021 18.4248C17.2508 18.4248 17.4951 18.3593 17.7105 18.235L22.7688 15.4011L25.1633 16.4213L17.0021 21.0405L8.84077 16.3505L11.2353 15.3303L16.2936 18.235ZM25.1633 22.0181L17.0021 26.7081L8.84077 22.0181L11.2353 20.9979L16.2936 23.9026C16.509 24.027 16.7533 24.0925 17.0021 24.0925C17.2508 24.0925 17.4951 24.027 17.7105 23.9026L22.7688 20.9979L25.1633 22.0181Z"   fill="#0d8adb" >
</path>
</svg>
