<svg xmlns="http://www.w3.org/2000/svg" xmlns:xlink="http://www.w3.org/1999/xlink" width="34" height="34" viewBox="0 0 34 34" fill="none">
<g opacity="0">
<path d="M0 34L34 34L34 0L0 0L0 34Z"   fill="#0d8adb" >
</path>
</g>
<path d="M25.5 4.25L8.5 4.25C7.37283 4.25 6.29183 4.69777 5.4948 5.4948C4.69777 6.29183 4.25 7.37283 4.25 8.5L4.25 25.5C4.25 26.6272 4.69777 27.7082 5.4948 28.5052C6.29183 29.3022 7.37283 29.75 8.5 29.75L25.5 29.75C26.6272 29.75 27.7082 29.3022 28.5052 28.5052C29.3022 27.7082 29.75 26.6272 29.75 25.5L29.75 8.5C29.75 7.37283 29.3022 6.29183 28.5052 5.4948C27.7082 4.69777 26.6272 4.25 25.5 4.25ZM8.5 7.08333L25.5 7.08333C25.8757 7.08333 26.2361 7.23259 26.5017 7.49827C26.7674 7.76394 26.9167 8.12428 26.9167 8.5L26.9167 11.3333L7.08333 11.3333L7.08333 8.5C7.08333 8.12428 7.23259 7.76394 7.49827 7.49827C7.76394 7.23259 8.12428 7.08333 8.5 7.08333L8.5 7.08333ZM7.08333 25.5L7.08333 14.1667L15.5833 14.1667L15.5833 26.9167L8.5 26.9167C8.12428 26.9167 7.76394 26.7674 7.49827 26.5017C7.23259 26.2361 7.08333 25.8757 7.08333 25.5ZM25.5 26.9167L18.4167 26.9167L18.4167 14.1667L26.9167 14.1667L26.9167 25.5C26.9167 25.8757 26.7674 26.2361 26.5017 26.5017C26.2361 26.7674 25.8757 26.9167 25.5 26.9167Z"   fill="#0d8adb" >
</path>
</svg>
