<svg xmlns="http://www.w3.org/2000/svg" xmlns:xlink="http://www.w3.org/1999/xlink" width="34" height="34" viewBox="0 0 34 34" fill="none">
<g opacity="0">
<path d="M0 34L34 34L34 0L0 0L0 34Z"   fill="#0d8adb" >
</path>
</g>
<path d="M16.9999 2.83331C14.198 2.83331 11.459 3.66417 9.12935 5.22083C6.79965 6.77748 4.98387 8.99001 3.91163 11.5786C2.83939 14.1673 2.55884 17.0157 3.10547 19.7638C3.65209 22.5118 5.00134 25.0361 6.98258 27.0173C8.96382 28.9986 11.4881 30.3478 14.2361 30.8944C16.9842 31.4411 19.8327 31.1605 22.4213 30.0883C25.0099 29.016 27.2224 27.2003 28.7791 24.8706C30.3357 22.5409 31.1666 19.8019 31.1666 17C31.1666 15.1396 30.8002 13.2974 30.0882 11.5786C29.3763 9.85985 28.3328 8.29813 27.0173 6.98264C25.7018 5.66714 24.1401 4.62363 22.4213 3.91169C20.7025 3.19974 18.8603 2.83331 16.9999 2.83331L16.9999 2.83331ZM16.9999 28.3333C14.7584 28.3333 12.5672 27.6686 10.7035 26.4233C8.83971 25.178 7.38708 23.408 6.52929 21.3371C5.6715 19.2662 5.44706 16.9874 5.88436 14.789C6.32166 12.5905 7.40105 10.5711 8.98605 8.9861C10.571 7.40111 12.5905 6.32171 14.7889 5.88441C16.9874 5.44711 19.2661 5.67155 21.337 6.52935C23.4079 7.38714 25.1779 8.83976 26.4233 10.7035C27.6686 12.5673 28.3333 14.7585 28.3333 17C28.3333 20.0058 27.1392 22.8885 25.0138 25.0139C22.8884 27.1393 20.0057 28.3333 16.9999 28.3333L16.9999 28.3333Z"   fill="#0d8adb" >
</path>
<path d="M17.4813 10.5541C17.1342 10.2342 16.7007 10.0234 16.2348 9.94786C15.7689 9.8723 15.291 9.93534 14.8606 10.1291C14.4428 10.2982 14.0849 10.5879 13.8326 10.9614C13.5803 11.3348 13.445 11.7751 13.4441 12.2258L13.4441 21.774C13.445 22.2247 13.5803 22.6649 13.8326 23.0384C14.0849 23.4119 14.4428 23.7016 14.8606 23.8707C15.1677 24.0099 15.5009 24.0824 15.8381 24.0831C16.4457 24.0805 17.0308 23.8534 17.4813 23.4457L22.6659 18.6715C22.8977 18.4592 23.0829 18.2009 23.2096 17.9131C23.3363 17.6253 23.4017 17.3143 23.4017 16.9999C23.4017 16.6855 23.3363 16.3745 23.2096 16.0867C23.0829 15.7989 22.8977 15.5406 22.6659 15.3282L17.4813 10.5541ZM16.2914 20.6832L16.2914 13.3166L20.2719 16.9999L16.2914 20.6832Z"   fill="#0d8adb" >
</path>
</svg>
