<svg xmlns="http://www.w3.org/2000/svg" xmlns:xlink="http://www.w3.org/1999/xlink" width="34" height="34" viewBox="0 0 34 34" fill="none">
<g opacity="0">
<path d="M34 0L0 0L0 34L34 34L34 0Z"   fill="#0d8adb" >
</path>
</g>
<path d="M26.9167 15.5834L18.4167 15.5834L18.4167 7.08335C18.4167 6.70763 18.2675 6.3473 18.0018 6.08162C17.7361 5.81594 17.3758 5.66669 17.0001 5.66669C16.6244 5.66669 16.264 5.81594 15.9983 6.08162C15.7327 6.3473 15.5834 6.70763 15.5834 7.08335L15.5834 15.5834L7.08342 15.5834C6.70769 15.5834 6.34736 15.7326 6.08168 15.9983C5.816 16.264 5.66675 16.6243 5.66675 17C5.66675 17.3757 5.816 17.7361 6.08168 18.0018C6.34736 18.2674 6.70769 18.4167 7.08342 18.4167L15.5834 18.4167L15.5834 26.9167C15.5834 27.2924 15.7327 27.6527 15.9983 27.9184C16.264 28.1841 16.6244 28.3334 17.0001 28.3334C17.3758 28.3334 17.7361 28.1841 18.0018 27.9184C18.2675 27.6527 18.4167 27.2924 18.4167 26.9167L18.4167 18.4167L26.9167 18.4167C27.2925 18.4167 27.6528 18.2674 27.9185 18.0018C28.1842 17.7361 28.3334 17.3757 28.3334 17C28.3334 16.6243 28.1842 16.264 27.9185 15.9983C27.6528 15.7326 27.2925 15.5834 26.9167 15.5834Z"   fill="#0d8adb" >
</path>
</svg>
