<svg xmlns="http://www.w3.org/2000/svg" xmlns:xlink="http://www.w3.org/1999/xlink" width="34" height="34" viewBox="0 0 34 34" fill="none">
<g opacity="0">
<path d="M0 34L34 34L34 0L0 0L0 34Z"   fill="#0d8adb" >
</path>
</g>
<path d="M16.9999 31.1667C14.198 31.1667 11.459 30.3358 9.12935 28.7791C6.79965 27.2225 4.98387 25.01 3.91163 22.4213C2.83939 19.8327 2.55884 16.9843 3.10547 14.2362C3.65209 11.4881 5.00134 8.96389 6.98258 6.98264C8.96382 5.0014 11.4881 3.65215 14.2361 3.10553C16.9842 2.5589 19.8327 2.83945 22.4213 3.91169C25.0099 4.98393 27.2224 6.79971 28.7791 9.12941C30.3357 11.4591 31.1666 14.1981 31.1666 17C31.1666 20.7572 29.674 24.3606 27.0173 27.0173C24.3605 29.6741 20.7572 31.1667 16.9999 31.1667L16.9999 31.1667ZM16.9999 5.66665C14.7584 5.66665 12.5672 6.33134 10.7035 7.57666C8.83971 8.82199 7.38708 10.592 6.52929 12.6629C5.6715 14.7338 5.44706 17.0126 5.88436 19.211C6.32166 21.4095 7.40105 23.4289 8.98605 25.0139C10.571 26.5989 12.5905 27.6783 14.7889 28.1156C16.9874 28.5529 19.2661 28.3284 21.337 27.4706C23.4079 26.6128 25.1779 25.1602 26.4233 23.2965C27.6686 21.4327 28.3333 19.2415 28.3333 17C28.3333 13.9942 27.1392 11.1115 25.0138 8.98611C22.8884 6.8607 20.0057 5.66665 16.9999 5.66665L16.9999 5.66665Z"   fill="#0d8adb" >
</path>
</svg>
