<svg xmlns="http://www.w3.org/2000/svg" xmlns:xlink="http://www.w3.org/1999/xlink" width="34" height="34" viewBox="0 0 34 34" fill="none">
<g opacity="0">
<path d="M0 34L34 34L34 0L0 0L0 34Z"   fill="#0d8adb" >
</path>
</g>
<path d="M28.76 19.025C28.403 18.9138 28.0165 18.9481 27.6848 19.1206C27.353 19.2931 27.1029 19.5897 26.989 19.9458C26.3197 21.992 25.0148 23.7713 23.2643 25.0248C21.5138 26.2783 19.4089 26.9406 17.2559 26.9154C14.5928 26.9457 12.0265 25.9188 10.1196 24.0599C8.21269 22.201 7.12086 19.6619 7.08352 16.9993C7.12086 14.3367 8.21269 11.7976 10.1196 9.93869C12.0265 8.07982 14.5928 7.05292 17.2559 7.08319C19.6609 7.07738 21.992 7.91445 23.8438 9.44889L20.7694 8.93892C20.5852 8.9086 20.3967 8.91501 20.215 8.95776C20.0332 9.00052 19.8617 9.07878 19.7103 9.18805C19.5589 9.29731 19.4305 9.43543 19.3327 9.59446C19.2349 9.75348 19.1694 9.93028 19.1402 10.1147C19.1098 10.2989 19.1162 10.4873 19.159 10.6691C19.2018 10.8508 19.28 11.0223 19.3893 11.1737C19.4986 11.3251 19.6367 11.4534 19.7958 11.5512C19.9548 11.6491 20.1316 11.7145 20.3161 11.7438L26.3231 12.7354L26.564 12.7354C26.7283 12.7352 26.8913 12.7064 27.0457 12.6504C27.0976 12.6307 27.1456 12.6019 27.1874 12.5654C27.2889 12.5276 27.3844 12.4751 27.4707 12.4096L27.5982 12.2537C27.5982 12.1829 27.7257 12.1262 27.7824 12.0412C27.8391 11.9562 27.7824 11.8996 27.8532 11.8429C27.8924 11.7604 27.9255 11.6752 27.9524 11.5879L29.015 5.92159C29.0503 5.73556 29.0487 5.54439 29.0101 5.359C28.9716 5.1736 28.8969 4.99761 28.7904 4.84108C28.6838 4.68454 28.5474 4.55053 28.3891 4.44668C28.2307 4.34284 28.0535 4.2712 27.8674 4.23585C27.6813 4.20051 27.4902 4.20215 27.3047 4.24068C27.1193 4.27922 26.9433 4.35389 26.7868 4.46044C26.4706 4.67563 26.2528 5.00759 26.1815 5.38329L25.7989 7.43734C23.4273 5.38221 20.3942 4.25063 17.2559 4.25002C13.8414 4.2198 10.5544 5.5452 8.11606 7.93538C5.67777 10.3256 4.28739 13.5853 4.25 16.9993C4.28739 20.4133 5.67777 23.673 8.11606 26.0632C10.5544 28.4534 13.8414 29.7788 17.2559 29.7486C20.023 29.7911 22.7307 28.9441 24.9802 27.3324C27.2298 25.7207 28.9024 23.4293 29.7517 20.7957C29.8054 20.6144 29.8223 20.4241 29.8013 20.2361C29.7803 20.0481 29.7219 19.8662 29.6294 19.7012C29.537 19.5361 29.4124 19.3913 29.2631 19.2751C29.1138 19.159 28.9427 19.074 28.76 19.025Z"   fill="#0d8adb" >
</path>
</svg>
