<svg xmlns="http://www.w3.org/2000/svg" xmlns:xlink="http://www.w3.org/1999/xlink" width="34" height="34" viewBox="0 0 34 34" fill="none">
<g opacity="0">
<path d="M0 34L34 34L34 0L0 0L0 34Z"   fill="#0d8adb" >
</path>
</g>
<path d="M28.5033 12.3392L21.6608 5.49667C20.8646 4.69941 19.7843 4.25099 18.6575 4.25L8.5 4.25C7.37283 4.25 6.29183 4.69777 5.4948 5.4948C4.69777 6.29183 4.25 7.37283 4.25 8.5L4.25 25.5C4.25 26.6272 4.69777 27.7082 5.4948 28.5052C6.29183 29.3022 7.37283 29.75 8.5 29.75L25.5 29.75C26.6272 29.75 27.7082 29.3022 28.5052 28.5052C29.3022 27.7082 29.75 26.6272 29.75 25.5L29.75 15.3425C29.749 14.2157 29.3006 13.1354 28.5033 12.3392L28.5033 12.3392ZM14.1667 26.9167L14.1667 24.0833L19.8333 24.0833L19.8333 26.9167L14.1667 26.9167ZM26.9167 25.5C26.9167 25.8757 26.7674 26.2361 26.5017 26.5017C26.2361 26.7674 25.8757 26.9167 25.5 26.9167L22.6667 26.9167L22.6667 22.6667C22.6667 22.2909 22.5174 21.9306 22.2517 21.6649C21.9861 21.3993 21.6257 21.25 21.25 21.25L12.75 21.25C12.3743 21.25 12.0139 21.3993 11.7483 21.6649C11.4826 21.9306 11.3333 22.2909 11.3333 22.6667L11.3333 26.9167L8.5 26.9167C8.12428 26.9167 7.76394 26.7674 7.49827 26.5017C7.23259 26.2361 7.08333 25.8757 7.08333 25.5L7.08333 8.5C7.08333 8.12428 7.23259 7.76394 7.49827 7.49827C7.76394 7.23259 8.12428 7.08333 8.5 7.08333L11.3333 7.08333L11.3333 14.1667C11.3333 14.5424 11.4826 14.9027 11.7483 15.1684C12.0139 15.4341 12.3743 15.5833 12.75 15.5833L18.4167 15.5833C18.7924 15.5833 19.1527 15.4341 19.4184 15.1684C19.6841 14.9027 19.8333 14.5424 19.8333 14.1667C19.8333 13.7909 19.6841 13.4306 19.4184 13.1649C19.1527 12.8993 18.7924 12.75 18.4167 12.75L14.1667 12.75L14.1667 7.08333L18.6575 7.08333C19.0326 7.08855 19.3919 7.23529 19.6633 7.49417L26.5058 14.3367C26.6371 14.469 26.741 14.626 26.8115 14.7986C26.882 14.9712 26.9177 15.1561 26.9167 15.3425L26.9167 25.5Z"   fill="#0d8adb" >
</path>
</svg>
