<svg xmlns="http://www.w3.org/2000/svg" xmlns:xlink="http://www.w3.org/1999/xlink" width="34" height="34" viewBox="0 0 34 34" fill="none">
<g opacity="0">
<path d="M0 34L34 34L34 0L0 0L0 34Z"   fill="#0d8adb" >
</path>
</g>
<path d="M16.9999 2.83331C24.8242 2.83331 31.1666 9.17573 31.1666 17C31.1666 24.8242 24.8242 31.1666 16.9999 31.1666C9.17567 31.1666 2.83325 24.8242 2.83325 17C2.83325 9.17573 9.17567 2.83331 16.9999 2.83331ZM16.9999 5.66665C13.9941 5.66665 11.1115 6.86069 8.98604 8.9861C6.86063 11.1115 5.66658 13.9942 5.66658 17C5.66658 20.0058 6.86063 22.8884 8.98604 25.0139C11.1115 27.1393 13.9941 28.3333 16.9999 28.3333C20.0057 28.3333 22.8884 27.1393 25.0138 25.0139C27.1392 22.8884 28.3333 20.0058 28.3333 17C28.3333 13.9942 27.1392 11.1115 25.0138 8.9861C22.8884 6.86069 20.0057 5.66665 16.9999 5.66665L16.9999 5.66665ZM24.0833 18.4166C24.0833 20.2953 23.337 22.0969 22.0086 23.4253C20.6802 24.7537 18.8785 25.5 16.9999 25.5C15.1213 25.5 13.3196 24.7537 11.9912 23.4253C10.6629 22.0969 9.91658 20.2953 9.91658 18.4166L24.0833 18.4166Z"   fill="#0d8adb" >
</path>
</svg>
