<svg xmlns="http://www.w3.org/2000/svg" xmlns:xlink="http://www.w3.org/1999/xlink" width="34" height="34" viewBox="0 0 34 34" fill="none">
<g opacity="0">
<path d="M0 34L34 34L34 0L0 0L0 34Z"   fill="#0d8adb" >
</path>
</g>
<path d="M25.5 29.75L8.5 29.75C7.37283 29.75 6.29183 29.3022 5.4948 28.5052C4.69777 27.7082 4.25 26.6272 4.25 25.5L4.25 8.5C4.25 7.37283 4.69777 6.29183 5.4948 5.4948C6.29183 4.69777 7.37283 4.25 8.5 4.25L25.5 4.25C26.6272 4.25 27.7082 4.69777 28.5052 5.4948C29.3022 6.29183 29.75 7.37283 29.75 8.5L29.75 25.5C29.75 26.6272 29.3022 27.7082 28.5052 28.5052C27.7082 29.3022 26.6272 29.75 25.5 29.75ZM8.5 7.08333C8.12428 7.08333 7.76394 7.23259 7.49827 7.49827C7.23259 7.76394 7.08333 8.12428 7.08333 8.5L7.08333 25.5C7.08333 25.8757 7.23259 26.2361 7.49827 26.5017C7.76394 26.7674 8.12428 26.9167 8.5 26.9167L25.5 26.9167C25.8757 26.9167 26.2361 26.7674 26.5017 26.5017C26.7674 26.2361 26.9167 25.8757 26.9167 25.5L26.9167 8.5C26.9167 8.12428 26.7674 7.76394 26.5017 7.49827C26.2361 7.23259 25.8757 7.08333 25.5 7.08333L8.5 7.08333Z"   fill="#0d8adb" >
</path>
</svg>
