<svg xmlns="http://www.w3.org/2000/svg" xmlns:xlink="http://www.w3.org/1999/xlink" width="34" height="34" viewBox="0 0 34 34" fill="none">
<g opacity="0">
<path d="M0 34L34 34L34 0L0 0L0 34Z"   fill="#0d8adb" >
</path>
</g>
<path d="M30.6831 14.6931C30.7306 14.6094 30.7641 14.5184 30.7822 14.4239L31.8446 8.75595C31.9123 8.38015 31.8279 7.99286 31.61 7.6793C31.3922 7.36573 31.0588 7.15157 30.6831 7.08392C30.3074 7.01628 29.9202 7.10069 29.6067 7.31859C29.2932 7.5365 29.0791 7.87004 29.0115 8.24584L28.4874 11.0798C27.3083 8.92587 25.5461 7.14799 23.403 5.95004C21.26 4.75209 18.8227 4.18258 16.3709 4.30684C13.919 4.43109 11.5518 5.24408 9.54075 6.65255C7.52968 8.06103 5.95619 10.008 5.00073 12.2701C4.86058 12.6177 4.86388 13.0068 5.0099 13.3521C5.15593 13.6973 5.43279 13.9706 5.77984 14.1121C5.95274 14.1837 6.13811 14.2204 6.32525 14.2199C6.51238 14.2194 6.69757 14.1819 6.87011 14.1094C7.04266 14.037 7.19914 13.931 7.33052 13.7977C7.46189 13.6644 7.56557 13.5064 7.63554 13.3328C8.39841 11.4578 9.71047 9.85762 11.3993 8.74235C13.0882 7.62708 15.0748 7.04895 17.0982 7.08392C18.8877 7.07557 20.6477 7.54033 22.1999 8.43113C23.7522 9.32193 25.0416 10.6072 25.9376 12.1567L23.6002 11.7741C23.4142 11.7443 23.2241 11.7515 23.0409 11.7952C22.8576 11.8389 22.6848 11.9183 22.5322 12.0288C22.3796 12.1394 22.2503 12.2789 22.1516 12.4394C22.0529 12.5999 21.9868 12.7783 21.957 12.9644C21.9272 13.1505 21.9344 13.3406 21.9781 13.5239C22.0218 13.7072 22.1012 13.8801 22.2117 14.0327C22.3221 14.1854 22.4616 14.3147 22.6221 14.4134C22.7826 14.5122 22.9609 14.5783 23.1469 14.6081L29.1673 15.6141L29.394 15.6141C29.5584 15.6161 29.7218 15.5873 29.8756 15.5291C29.9275 15.5094 29.9755 15.4806 30.0173 15.4441C30.1188 15.4063 30.2143 15.3538 30.3006 15.2882L30.4139 15.1465C30.4874 15.0777 30.5538 15.0018 30.6122 14.9198C30.6467 14.8481 30.6705 14.7717 30.6831 14.6931L30.6831 14.6931Z"   fill="#0d8adb" >
</path>
<path d="M28.165 19.9327C27.9912 19.8615 27.8049 19.8256 27.6171 19.827C27.4293 19.8284 27.2436 19.8672 27.0709 19.941C26.8982 20.0148 26.7419 20.1223 26.6111 20.2571C26.4803 20.3919 26.3776 20.5513 26.309 20.7262C25.5407 22.5813 24.2334 24.1631 22.5563 25.267C20.8791 26.3708 18.9094 26.9459 16.9018 26.9179C15.112 26.9262 13.3518 26.4615 11.7994 25.5708C10.2469 24.6801 8.95739 23.3949 8.06126 21.8455L10.3989 22.2281L10.6256 22.2281C11.0013 22.2581 11.3736 22.1377 11.6606 21.8932C11.9475 21.6488 12.1256 21.3003 12.1557 20.9245C12.1857 20.5488 12.0653 20.1764 11.8209 19.8895C11.5764 19.6025 11.228 19.4244 10.8523 19.3943L4.83107 18.4167C4.67653 18.3882 4.51808 18.3882 4.36354 18.4167L4.2502 18.4167C4.08987 18.4593 3.93698 18.5262 3.79684 18.6151C3.70132 18.6889 3.61562 18.7746 3.54183 18.8701L3.41432 19.0118C3.37053 19.0972 3.33723 19.1876 3.31515 19.281C3.2655 19.3534 3.23171 19.4355 3.21598 19.5219L2.15341 25.1893C2.10791 25.3776 2.1015 25.5733 2.13459 25.7641C2.16767 25.955 2.23955 26.1371 2.34577 26.2991C2.45199 26.4611 2.59031 26.5996 2.75217 26.706C2.91403 26.8125 3.09599 26.8846 3.28681 26.9179L3.54183 26.9179C3.8773 26.9234 4.20382 26.8096 4.46327 26.5968C4.72271 26.3841 4.89823 26.0861 4.95858 25.7561L5.48278 22.9223C6.66083 25.0766 8.42212 26.8552 10.5647 28.0542C12.7072 29.2532 15.1443 29.8241 17.5964 29.7013C20.0485 29.5786 22.4164 28.7672 24.4285 27.3601C26.4406 25.9531 28.0155 24.0075 28.9725 21.7463C29.1023 21.3985 29.0905 21.0136 28.9394 20.6744C28.7884 20.3353 28.5103 20.0689 28.165 19.9327Z"   fill="#0d8adb" >
</path>
</svg>
